<svg width="204" height="30" viewBox="0 0 204 30" fill="none" xmlns="http://www.w3.org/2000/svg">
<path d="M0.000154734 0.599959H10.2002C15.7202 0.599959 18.8402 3.83996 18.8402 8.23996C18.8402 11.16 17.0802 13.52 14.7202 14.32C17.4802 15 19.7202 17.52 19.7202 21.04C19.7202 25.64 16.2802 28.96 10.9602 28.96H0.000154734V0.599959ZM5.44016 12.32H9.36016C11.8802 12.32 13.4002 10.92 13.4002 8.75996C13.4002 6.59996 12.0002 5.23996 9.32016 5.23996H5.44016V12.32ZM5.44016 24.36H9.92016C12.6002 24.36 14.2002 22.96 14.2002 20.68C14.2002 18.44 12.7602 16.88 10.0002 16.88H5.44016V24.36ZM27.6895 16.88H36.4895C36.4095 14.92 35.1295 13 32.0895 13C29.3295 13 27.8095 15.08 27.6895 16.88ZM37.0095 22L41.4495 23.32C40.4495 26.72 37.3295 29.56 32.4895 29.56C27.0895 29.56 22.3295 25.68 22.3295 19.04C22.3295 12.76 26.9695 8.67996 32.0095 8.67996C38.0895 8.67996 41.7295 12.56 41.7295 18.88C41.7295 19.64 41.6495 20.44 41.6495 20.52H27.5695C27.6895 23.12 29.8895 25 32.5295 25C35.0095 25 36.3695 23.76 37.0095 22ZM50.8389 17.64V28.96H45.5189V9.27996H50.6789V11.72C51.8789 9.67996 54.2389 8.75996 56.3589 8.75996C61.2389 8.75996 63.4789 12.24 63.4789 16.56V28.96H58.1589V17.48C58.1589 15.28 57.0789 13.56 54.5189 13.56C52.1989 13.56 50.8389 15.36 50.8389 17.64ZM77.3183 13.6C74.5983 13.6 72.3183 15.56 72.3183 19.12C72.3183 22.68 74.6383 24.68 77.3583 24.68C80.0783 24.68 81.4383 22.88 81.8783 21.36L86.5583 22.92C85.6783 26.2 82.5983 29.56 77.3583 29.56C71.5583 29.56 66.9983 25.16 66.9983 19.12C66.9983 13.04 71.4783 8.67996 77.1983 8.67996C82.5583 8.67996 85.5983 12 86.4383 15.32L81.6783 16.92C81.1983 15.28 79.9583 13.6 77.3183 13.6ZM95.3905 17.4V28.96H90.0705V-4.05312e-05H95.3905V10.92C96.6705 9.39996 98.8305 8.75996 100.71 8.75996C105.71 8.75996 108.03 12.24 108.03 16.56V28.96H102.71V17.48C102.71 15.28 101.63 13.56 99.0705 13.56C96.8305 13.56 95.5105 15.24 95.3905 17.4ZM118.35 28.96H113.03V9.27996H118.11V11.68C119.19 9.75996 121.71 8.71996 123.87 8.71996C126.55 8.71996 128.71 9.87996 129.71 12C131.27 9.59996 133.35 8.71996 135.95 8.71996C139.59 8.71996 143.07 10.92 143.07 16.2V28.96H137.91V17.28C137.91 15.16 136.87 13.56 134.43 13.56C132.15 13.56 130.79 15.32 130.79 17.44V28.96H125.51V17.28C125.51 15.16 124.43 13.56 122.03 13.56C119.71 13.56 118.35 15.28 118.35 17.44V28.96ZM146.86 23.6C146.86 20.08 149.46 18.12 152.74 17.64L157.58 16.92C158.7 16.76 159.06 16.2 159.06 15.52C159.06 14.12 157.98 12.96 155.74 12.96C153.42 12.96 152.14 14.44 151.98 16.16L147.26 15.16C147.58 12.08 150.42 8.67996 155.7 8.67996C161.94 8.67996 164.26 12.2 164.26 16.16V25.84C164.26 26.88 164.38 28.28 164.5 28.96H159.62C159.5 28.44 159.42 27.36 159.42 26.6C158.42 28.16 156.54 29.52 153.62 29.52C149.42 29.52 146.86 26.68 146.86 23.6ZM154.74 25.56C156.98 25.56 159.06 24.48 159.06 21V20.12L154.62 20.8C153.26 21 152.18 21.76 152.18 23.28C152.18 24.44 153.02 25.56 154.74 25.56ZM181.222 9.19996V14.56C180.622 14.44 180.102 14.4 179.622 14.4C176.902 14.4 174.542 15.72 174.542 19.96V28.96H169.222V9.27996H174.382V12.2C175.582 9.59996 178.302 9.11996 179.982 9.11996C180.422 9.11996 180.822 9.15996 181.222 9.19996ZM203.644 9.27996L195.764 17.56L203.804 28.96H197.284L192.084 21.44L189.884 23.76V28.96H184.564V-4.05312e-05H189.884V16.6L196.684 9.27996H203.644Z" fill="white"/>
</svg>
